<svg viewBox="0 0 32 32" stroke-width="0" fill="var(--color1, #FFD500)" width="32" height="32" xmlns="http://www.w3.org/2000/svg" xmlns:xlink="http://www.w3.org/1999/xlink">
    <style>
        :root, .palette0 {color: currentColor;
            --color0: #1a1a1a;
            --color1: #FFD500;
        }
    </style>
    <path fill="var(--color0, #1a1a1a)" class="cls-2" d="M31.3242 11.2612C28.7798 9.1582 25.5571 8 22.2505 8H22v2h0.2505c2.6079 0 5.1543 0.8374 7.2456 2.3716-1.3672 3.3955-4.1621 5.9414-7.5483 7.0366C21.9825 19.0054 22 18.5986 22 18.1885 22 10.3648 15.6353 4 7.8115 4 6.8833 4 5.956 4.0903 5.0552 4.2681L4.398 4.398 4.2681 5.0552C4.0904 5.9561 4 6.8833 4 7.8115c0 4.1244 1.7795 7.8315 4.5983 10.4264-0.3759 1.2767-0.5992 2.6185-0.5992 4.0165l1e-3 9e-4c11e-4 3.3049 1.159 6.5258 3.261 9.069l0.4385 0.5303 0.6523-0.2202c4.6675-1.5752 8.0962-5.4111 9.2368-10.0454 4.6343-1.1406 8.4702-4.5693 10.0454-9.2368l0.2202-0.6523zM12.3716 29.4961C10.8374 27.4048 10 24.8584 10 22.2505h-6e-4c3e-4-0.9115 0.1136-1.7958 0.304-2.6512 2.2567 1.5145 4.9689 2.4008 7.8851 2.4008 0.4102 0 0.8169-0.0176 1.2197-0.0522-1.0952 3.3862-3.6411 6.1812-7.0366 7.5482zM19.8828 19.8828C19.3271 19.9599 18.7617 20 18.1885 20c-2.7159 0-5.2186-0.9039-7.2472-2.4116 0.8616-2.0793 2.2642-3.881 4.0479-5.204l-1.28-1.53c-1.8557 1.3905-3.3427 3.2305-4.3404 5.3458-2.0815-2.1875-3.3687-5.1378-3.3687-8.3887 0-0.5684 0.0391-1.1357 0.1167-1.6948C6.6759 6.0391 7.2433 6 7.8116 6c6.7207 0 12.1885 5.4678 12.1885 12.1885 0 0.5732-0.04 1.1387-0.1173 1.6943z" />
    <circle class="cls-2" cx="20" cy="2" r="2" />
    <circle class="cls-2" cx="27" cy="26" r="2" />
    <circle class="cls-2" cx="2" cy="20" r="2" />
</svg>